#!OML:ASF H:\GeneralSubjects\Female5\Project 1\Capture day 1\Session 1\Female5.ASF
:FULLY-SPECIFIED
:DEGREES
17
root -27.0019 15.9152 7.11009 -171.291 -26.9503 -176.416
lowerback 8.04088 1.48031 -4.69519
upperback -9.47633 0.963423 1.00654
thorax -15.2111 0.852679 3.61485
lowerneck -16.6877 -6.88243 -12.242
upperneck 25.6682 -12.5697 16.0666
head 13.2854 -5.4449 6.09749
rclavicle 1.32192e-014 2.94201e-014
rhumerus -50.6775 29.8113 -91.5681
rradius 40.4791
rwrist -12.5764
rhand -21.1553 -17.3424
rfingers 7.12502
rthumb 5.22441 -47.258
lclavicle 1.32192e-014 2.94201e-014
lhumerus -39.1176 12.6666 72.9913
lradius 27.0174
lwrist -14.9904
lhand -26.4693 33.1953
lfingers 7.12502
lthumb 0.0924989 63.1751
rfemur -10.1303 10.4442 15.0574
rtibia 11.6476
rfoot -34.708 -27.5754
rtoes 12.5417
lfemur -7.1279 -16.6642 -26.9613
ltibia 10.3715
lfoot -27.9385 20.813
ltoes -57.3096
18
root -26.9548 15.907 7.11448 -171.426 -26.6318 -176.641
lowerback 8.04002 1.53908 -4.65134
upperback -9.58429 1.03027 0.981049
thorax -15.3482 0.876428 3.5493
lowerneck -16.7694 -6.76267 -12.1659
upperneck 26.1794 -12.4122 15.7249
head 13.4473 -5.40626 5.9949
rclavicle -1.99282e-014 -1.70955e-014
rhumerus -50.5953 29.8849 -91.5333
rradius 40.6615
rwrist -12.5488
rhand -21.1261 -17.3075
rfingers 7.12502
rthumb 5.25257 -47.2224
lclavicle -1.99282e-014 -1.70955e-014
lhumerus -38.8042 11.571 74.0758
lradius 27.673
lwrist -14.018
lhand -26.6448 33.1442
lfingers 7.12502
lthumb -0.0769892 63.1239
rfemur -8.8008 10.4549 14.8137
rtibia 11.5182
rfoot -33.6876 -28.0831
rtoes 12.7708
lfemur -6.82426 -16.7958 -27.1136
ltibia 10.2546
lfoot -28.3598 20.948
ltoes -56.8903
19
root -26.908 15.8979 7.11268 -171.598 -26.3183 -176.863
lowerback 7.99779 1.59073 -4.55972
upperback -9.66835 1.09846 0.950512
thorax -15.4268 0.893684 3.45057
lowerneck -16.8421 -6.63006 -12.0672
upperneck 26.6728 -12.2325 15.3704
head 13.5956 -5.35872 5.88592
rclavicle -7.41964e-014 -1.43125e-014
rhumerus -50.4176 29.9317 -91.468
rradius 40.8629
rwrist -12.538
rhand -21.0609 -17.2756
rfingers 7.12502
rthumb 5.31555 -47.1889
lclavicle -7.41964e-014 -1.43125e-014
lhumerus -38.5126 10.3721 75.1618
lradius 28.3402
lwrist -13.0136
lhand -26.8219 33.0608
lfingers 7.12502
lthumb -0.248078 63.0404
rfemur -7.38533 10.5786 14.6321
rtibia 11.1435
rfoot -32.29 -28.5865
rtoes 12.2727
lfemur -6.46678 -16.8903 -27.2699
ltibia 10.1561
lfoot -28.78 21.0501
ltoes -56.514
20
root -26.8588 15.8878 7.10614 -171.77 -26.0194 -177.11
lowerback 7.878 1.62241 -4.49303
upperback -9.71578 1.14488 0.938508
thorax -15.4092 0.903107 3.39147
lowerneck -16.8803 -6.46213 -11.9293
upperneck 27.1033 -11.9697 14.9535
head 13.6887 -5.27743 5.75748
rclavicle 2.61402e-014 5.1684e-015
rhumerus -50.1469 30.0268 -91.3661
rradius 41.0996
rwrist -12.5192
rhand -21.0555 -17.3815
rfingers 7.12502
rthumb 5.32078 -47.2947
lclavicle 2.61402e-014 5.1684e-015
lhumerus -38.2272 9.12693 76.2647
lradius 29.0149
lwrist -12.0119
lhand -27.018 32.9908
lfingers 7.12502
lthumb -0.437469 62.9701
rfemur -5.94965 10.9104 14.5028
rtibia 10.5583
rfoot -30.913 -29.0499
rtoes 10.6386
lfemur -6.11937 -16.8864 -27.4311
ltibia 10.1125
lfoot -29.1103 21.1221
ltoes -56.327
21
root -26.8061 15.8762 7.09549 -171.933 -25.7164 -177.361
lowerback 7.67129 1.64064 -4.4122
upperback -9.73362 1.18148 0.929289
thorax -15.2969 0.904596 3.33006
lowerneck -16.8659 -6.25684 -11.7527
upperneck 27.4482 -11.6279 14.4994
head 13.7169 -5.1625 5.61857
rclavicle -4.22417e-015 1.27222e-014
rhumerus -49.7814 30.1311 -91.2613
rradius 41.3484
rwrist -12.4759
rhand -21.1954 -17.6934
rfingers 7.12502
rthumb 5.18568 -47.61
lclavicle -4.22417e-015 1.27222e-014
lhumerus -37.9437 7.81948 77.3501
lradius 29.6826
lwrist -11.0568
lhand -27.2231 32.97
lfingers 7.12502
lthumb -0.635599 62.9488
rfemur -4.53292 11.586 14.4667
rtibia 9.74843
rfoot -29.9567 -29.445
rtoes 7.81104
lfemur -5.80706 -16.7727 -27.5652
ltibia 10.1245
lfoot -29.3463 21.1835
ltoes -56.142
